# ProBuilder 4.5.2
# https://unity3d.com/unity/features/worldbuilding/probuilder
# 11/30/2022 2:18:49 PM

mtllib ./bookLowPoly.mtl
o bookLowPoly

g book
v -0.1713064 0.05380014 -0.2606804
v 0.1253203 -0.05340895 -0.2605897
v -0.1713064 -0.05340895 -0.2606804
v 0.1253203 0.05380014 -0.2605897
v 0.1686006 0.004529148 -0.2605761
v 0.1686006 -0.004137456 -0.2605761
v 0.1337647 0.05285376 -0.2605873
v 0.1337647 -0.05246234 -0.2605873
v 0.1418833 0.05004987 -0.260585
v 0.1418833 -0.04965863 -0.260585
v 0.1493655 0.04549664 -0.2605822
v 0.1493655 -0.04510495 -0.2605822
v 0.1559249 0.03936914 -0.2605808
v 0.1613072 0.03190273 -0.2605789
v 0.1653063 0.02338448 -0.2605775
v 0.1677687 0.01414156 -0.260577
v 0.1559249 -0.03897744 -0.2605808
v 0.1613072 -0.03151104 -0.2605789
v 0.1653063 -0.02299264 -0.2605775
v 0.1677687 -0.01374984 -0.260577
v -0.1714662 0.05380014 0.2615648
v -0.1714662 -0.05340895 0.2615648
v 0.1651469 -0.02299264 0.2616677
v 0.16761 -0.01374984 0.2616682
v 0.1684413 -0.004137456 0.2616686
v 0.1611469 -0.03151104 0.2616663
v 0.1557652 -0.03897744 0.2616649
v 0.1492063 -0.04510495 0.2616625
v 0.141724 -0.04965863 0.2616602
v 0.1336044 -0.05246234 0.2616583
v 0.1251611 -0.05340895 0.2616555
v 0.1251611 0.05380014 0.2616555
v 0.1684413 0.004529148 0.2616686
v 0.1336044 0.05285376 0.2616583
v 0.141724 0.05004987 0.2616602
v 0.1492063 0.04549664 0.2616625
v 0.1557652 0.03936914 0.2616649
v 0.1611469 0.03190273 0.2616663
v 0.1651469 0.02338448 0.2616677
v 0.16761 0.01414156 0.2616682
v -0.1859722 -0.06584486 0.2793378
v -0.1859722 -0.05396384 0.2793378
v -0.1858011 -0.05396384 -0.2794515
v -0.1858011 -0.06584486 -0.2794515
v -0.1859722 0.05396345 0.2793378
v -0.1859722 0.06584486 0.2793378
v -0.1858011 0.06584486 -0.2794515
v -0.1858011 0.05396345 -0.2794515
v 0.1527431 0.05396345 0.2794416
v 0.152914 0.05396345 -0.2793481
v 0.1619928 0.06584486 0.2794444
v 0.1771308 0.04284313 0.2794487
v 0.1655051 0.03525558 0.2794454
v 0.1846662 0.02006665 0.2794515
v 0.1716603 0.01444277 0.2794473
v 0.1858021 0.0003845692 0.2794515
v 0.1727802 0.0004762709 0.2794477
v 0.1716608 -0.01444265 0.2794473
v 0.1846662 -0.02006656 0.2794515
v 0.1655075 -0.03525594 0.2794454
v 0.1771328 -0.04284462 0.2794491
v 0.1527492 -0.05396384 0.2794412
v 0.1619989 -0.06584486 0.279444
v 0.1621639 0.06584486 -0.2793453
v 0.177301 0.04284313 -0.2793411
v 0.1848374 0.02006665 -0.2793383
v 0.1859722 0.0003845692 -0.2793378
v 0.1848374 -0.02006656 -0.2793383
v 0.1773028 -0.04284462 -0.2793411
v 0.1621695 -0.06584486 -0.2793453
v 0.1656756 0.03525558 -0.2793444
v 0.1718304 0.01444277 -0.279342
v 0.1729507 0.0004762709 -0.2793425
v 0.1718314 -0.01444265 -0.2793425
v 0.1656781 -0.03525594 -0.2793439
v 0.1529202 -0.05396384 -0.2793481

vt 0.087597 0.064581
vt 0.101543 0.102648
vt 0.101375 0.064522
vt 0.087763 0.102709
vt 0.094119 0.108245
vt 0.095232 0.108241
vt 0.08789 0.103794
vt 0.101426 0.103734
vt 0.088255 0.104836
vt 0.10107 0.10478
vt 0.088845 0.105795
vt 0.100489 0.105745
vt 0.089636 0.106634
vt 0.090598 0.107322
vt 0.091695 0.107832
vt 0.092883 0.108143
vt 0.099705 0.106592
vt 0.098747 0.107289
vt 0.097654 0.107807
vt 0.096467 0.108129
vt 0.020469 0.064872
vt 0.087538 0.0508
vt 0.020409 0.051092
vt 0.010787 0.108185
vt 0.011977 0.108496
vt 0.013213 0.108597
vt 0.00969 0.107675
vt 0.008727 0.106987
vt 0.007935 0.106147
vt 0.007346 0.105187
vt 0.006981 0.104145
vt 0.006855 0.103059
vt 0.020634 0.103
vt 0.014327 0.108592
vt 0.006691 0.064933
vt 0.020517 0.104086
vt 0.020161 0.105131
vt 0.01958 0.106095
vt 0.018796 0.106942
vt 0.01784 0.107638
vt 0.016748 0.108157
vt 0.015561 0.108479
vt 0.020644 0.105197
vt 0.087772 0.104905
vt 0.087777 0.106031
vt 0.020649 0.106323
vt 0.087782 0.107185
vt 0.020654 0.107476
vt 0.087788 0.108368
vt 0.020659 0.10866
vt 0.087793 0.109577
vt 0.020664 0.109869
vt 0.087798 0.110807
vt 0.020669 0.111099
vt 0.087804 0.112047
vt 0.020675 0.112339
vt 0.087809 0.113162
vt 0.02068 0.113453
vt 0.020685 0.114693
vt 0.087814 0.114402
vt 0.08782 0.115631
vt 0.02069 0.115923
vt 0.087825 0.116841
vt 0.020695 0.117133
vt 0.08783 0.118024
vt 0.0207 0.118316
vt 0.087835 0.119178
vt 0.020705 0.11947
vt 0.08784 0.120304
vt 0.02071 0.120596
vt 0.087845 0.121408
vt 0.020715 0.1217
vt 0.02072 0.122792
vt 0.08785 0.1225
vt 0.087372 0.012672
vt 0.020244 0.012964
vt 0.009149 0.243902
vt 0.009152 0.244989
vt 0.060264 0.244863
vt 0.060261 0.243776
vt 0.008966 0.166051
vt 0.008969 0.167138
vt 0.06007 0.167018
vt 0.060067 0.165932
vt 0.008903 0.135072
vt 0.059996 0.134958
vt 0.108505 0.008412
vt 0.107124 0.008412
vt 0.107124 0.053219
vt 0.108505 0.054443
vt 0.105832 0.056445
vt 0.10495 0.054907
vt 0.103185 0.057442
vt 0.102532 0.055722
vt 0.100898 0.057592
vt 0.100909 0.05587
vt 0.099175 0.055722
vt 0.098522 0.057442
vt 0.096757 0.054908
vt 0.095875 0.056445
vt 0.094583 0.05322
vt 0.093202 0.054443
vt 0.093202 0.008412
vt 0.094583 0.008412
vt 0.009039 0.198965
vt 0.060146 0.19884
vt 0.060152 0.201358
vt 0.009045 0.201484
vt 0.060158 0.203552
vt 0.00905 0.20368
vt 0.009054 0.205483
vt 0.060163 0.205355
vt 0.009059 0.207357
vt 0.060168 0.207228
vt 0.060174 0.209422
vt 0.009064 0.209553
vt 0.060181 0.211941
vt 0.009071 0.212073
vt 0.13001 0.058049
vt 0.128725 0.01503
vt 0.128681 0.058049
vt 0.13024 0.013865
vt 0.127425 0.011931
vt 0.126467 0.013264
vt 0.124892 0.010989
vt 0.124217 0.012416
vt 0.122689 0.010814
vt 0.122699 0.012258
vt 0.121071 0.01242
vt 0.120403 0.01099
vt 0.11881 0.013244
vt 0.117886 0.01191
vt 0.116567 0.014902
vt 0.115053 0.013733
vt 0.115195 0.058039
vt 0.116708 0.058034
vt 0.060355 0.28454
vt 0.009266 0.286729
vt 0.060359 0.286611
vt 0.009262 0.284658
vt 0.009257 0.282674
vt 0.060351 0.282556
vt 0.060349 0.281275
vt 0.009254 0.281394
vt 0.060346 0.279907
vt 0.00925 0.280026
vt 0.009245 0.278042
vt 0.060343 0.277923
vt 0.060339 0.275851
vt 0.009239 0.275972

vn 0.000305833 0 -1
vn 0.0003212267 -1.675272E-05 -0.9999999
vn -0.9999999 0 -0.0003059866
vn -0.0002277793 -1.0782E-05 1
vn -0.0003552285 1.692899E-05 0.9999999
vn 0.05577752 0.9984432 1.706557E-05
vn 0 1 0
vn 0.2202378 0.9754462 6.753811E-05
vn 0.4255741 0.9049236 0.0001299542
vn 0.6044055 0.7966769 0.0001843267
vn 0.7504869 0.6608853 0.0002294297
vn 0.7505006 0.6608697 0.0002297978
vn 0.8619219 0.507041 0.0002643259
vn 0.9394845 0.3425913 0.0002870268
vn 0.9850109 0.1724916 0.0002997381
vn 0.9990692 0.04313366 0.0003044909
vn 0.9990692 -0.04313379 0.0003044909
vn 0.9850129 -0.1724804 0.0002999813
vn 0.9394884 -0.3425808 0.000286364
vn 0.8619063 -0.5070675 0.0002641038
vn 0.7504879 -0.6608841 0.000229794
vn 0.7505016 -0.6608685 0.0002294342
vn 0.6044308 -0.7966576 0.0001844934
vn 0.4255933 -0.9049145 0.0001298056
vn 0.2202509 -0.9754432 6.738753E-05
vn 0.05579145 -0.9984424 1.706984E-05
vn 0 -1 0
vn 0.4744785 0.8802671 0.0001448625
vn 0.900099 0.4356854 0.0002743867
vn 0.9822727 0.1874577 0.0002999495
vn 0.9999994 0.001069505 0.0003049621
vn 0.9824836 -0.1863486 0.0003000011
vn 0.9001455 -0.4355892 0.0002744289
vn 0.4745184 -0.8802456 0.0001446469
vn -0.903429 -0.4287375 -0.0002757645
vn -0.8260953 -0.5635303 -0.0002524785
vn -0.9831596 -0.182749 -0.000299774
vn -0.9999967 -0.002568421 -0.0003050943
vn -0.983633 0.1801833 -0.0003002855
vn -0.9034755 0.4286396 -0.00027596
vn -0.8261718 0.5634184 -0.000252502

usemtl polySurface145Mat
f 2/2/1 5/5/1 6/6/1
f 8/8/1 2/2/1 6/6/1
f 7/7/1 9/9/1 5/5/1
f 6/6/1 10/10/1 8/8/1
f 9/9/1 11/11/1 5/5/1
f 6/6/1 12/12/1 10/10/1
f 11/11/1 13/13/1 5/5/1
f 13/13/1 14/14/2 5/5/1
f 6/6/1 17/17/1 12/12/1
f 6/6/1 18/18/2 17/17/1
f 25/26/4 31/32/4 30/31/4
f 32/33/4 31/32/4 25/26/4
f 32/33/4 25/26/4 33/34/4
f 34/36/4 32/33/4 33/34/4
f 33/34/4 35/37/4 34/36/4
f 33/34/4 36/38/5 35/37/4
f 33/34/4 37/39/4 36/38/5
f 33/34/4 38/40/4 37/39/4
f 2/2/1 3/3/1 1/1/1
f 1/1/1 4/4/1 2/2/1
f 2/2/1 4/4/1 7/7/1
f 7/7/1 5/5/1 2/2/1
f 14/14/2 15/15/1 16/16/1
f 16/16/1 5/5/1 14/14/2
f 19/19/1 18/18/2 6/6/1
f 6/6/1 20/20/1 19/19/1
f 21/21/3 1/1/3 3/22/3
f 3/22/3 22/23/3 21/21/3
f 23/24/4 24/25/4 25/26/4
f 25/26/4 26/27/4 23/24/4
f 27/28/4 26/27/4 25/26/4
f 25/26/4 28/29/5 27/28/4
f 29/30/4 28/29/5 25/26/4
f 25/26/4 30/31/4 29/30/4
f 31/32/4 32/33/4 21/21/4
f 21/21/4 22/35/4 31/32/4
f 39/41/4 38/40/4 33/34/4
f 33/34/4 40/42/4 39/41/4
f 4/4/6 1/1/7 21/21/7
f 21/21/7 32/33/6 4/4/6
f 4/4/6 32/33/6 34/36/8
f 34/36/8 7/7/8 4/4/6
f 7/7/8 34/36/8 35/43/9
f 35/43/9 9/44/9 7/7/8
f 11/45/10 9/44/9 35/43/9
f 35/43/9 36/46/10 11/45/10
f 13/47/11 11/45/10 36/46/10
f 36/46/10 37/48/12 13/47/11
f 14/49/13 13/47/11 37/48/12
f 37/48/12 38/50/13 14/49/13
f 15/51/14 14/49/13 38/50/13
f 38/50/13 39/52/14 15/51/14
f 16/53/15 15/51/14 39/52/14
f 39/52/14 40/54/15 16/53/15
f 5/55/16 16/53/15 40/54/15
f 40/54/15 33/56/16 5/55/16
f 6/57/17 5/55/16 33/56/16
f 33/56/16 25/58/17 6/57/17
f 6/57/17 25/58/17 24/59/18
f 24/59/18 20/60/18 6/57/17
f 19/61/19 20/60/18 24/59/18
f 24/59/18 23/62/19 19/61/19
f 18/63/20 19/61/19 23/62/19
f 23/62/19 26/64/20 18/63/20
f 17/65/21 18/63/20 26/64/20
f 26/64/20 27/66/22 17/65/21
f 12/67/23 17/65/21 27/66/22
f 27/66/22 28/68/23 12/67/23
f 10/69/24 12/67/23 28/68/23
f 28/68/23 29/70/24 10/69/24
f 8/71/25 10/69/24 29/70/24
f 29/70/24 30/72/25 8/71/25
f 8/71/25 30/72/25 31/73/26
f 31/73/26 2/74/26 8/71/25
f 3/22/27 2/75/26 31/76/26
f 31/76/26 22/23/27 3/22/27
f 41/77/3 42/78/3 43/79/3
f 43/79/3 44/80/3 41/77/3
f 45/81/3 46/82/3 47/83/3
f 47/83/3 48/84/3 45/81/3
f 49/85/27 45/81/27 48/84/27
f 48/84/27 50/86/27 49/85/27
f 46/87/4 45/88/4 49/89/4
f 49/89/4 51/90/4 46/87/4
f 52/91/4 51/90/4 49/89/4
f 49/89/4 53/92/4 52/91/4
f 54/93/4 52/91/4 53/92/4
f 53/92/4 55/94/4 54/93/4
f 56/95/4 54/93/4 55/94/4
f 55/94/4 57/96/5 56/95/4
f 56/95/4 57/96/5 58/97/4
f 58/97/4 59/98/4 56/95/4
f 59/98/4 58/97/4 60/99/5
f 60/99/5 61/100/5 59/98/4
f 61/100/5 60/99/5 62/101/4
f 62/101/4 63/102/4 61/100/5
f 41/103/4 63/102/4 62/101/4
f 62/101/4 42/104/4 41/103/4
f 47/83/7 46/82/7 51/105/28
f 51/105/28 64/106/28 47/83/7
f 65/107/29 64/106/28 51/105/28
f 51/105/28 52/108/29 65/107/29
f 66/109/30 65/107/29 52/108/29
f 52/108/29 54/110/30 66/109/30
f 66/109/30 54/110/30 56/111/31
f 56/111/31 67/112/31 66/109/30
f 67/112/31 56/111/31 59/113/32
f 59/113/32 68/114/32 67/112/31
f 69/115/33 68/114/32 59/113/32
f 59/113/32 61/116/33 69/115/33
f 70/117/34 69/115/33 61/116/33
f 61/116/33 63/118/34 70/117/34
f 44/80/27 70/117/34 63/118/34
f 63/118/34 41/77/27 44/80/27
f 50/120/1 48/121/1 47/119/1
f 47/119/1 64/122/1 50/120/1
f 50/120/1 64/122/1 65/123/1
f 65/123/1 71/124/1 50/120/1
f 71/124/1 65/123/1 66/125/1
f 66/125/1 72/126/1 71/124/1
f 72/126/1 66/125/1 67/127/1
f 67/127/1 73/128/2 72/126/1
f 74/129/2 73/128/2 67/127/1
f 67/127/1 68/130/1 74/129/2
f 75/131/1 74/129/2 68/130/1
f 68/130/1 69/132/1 75/131/1
f 76/133/1 75/131/1 69/132/1
f 69/132/1 70/134/1 76/133/1
f 76/133/1 70/134/1 44/135/1
f 44/135/1 43/136/1 76/133/1
f 49/138/36 50/139/36 71/137/35
f 71/137/35 53/140/35 49/138/36
f 55/141/37 53/140/35 71/137/35
f 71/137/35 72/142/37 55/141/37
f 55/141/37 72/142/37 73/143/38
f 73/143/38 57/144/38 55/141/37
f 57/144/38 73/143/38 74/145/39
f 74/145/39 58/146/39 57/144/38
f 60/147/40 58/146/39 74/145/39
f 74/145/39 75/148/40 60/147/40
f 60/147/40 75/148/40 76/149/41
f 76/149/41 62/150/41 60/147/40
f 62/150/7 76/149/7 43/79/7
f 43/79/7 42/78/7 62/150/7

